<?xml version="1.0" encoding="utf-8" standalone="no"?>
<!DOCTYPE svg PUBLIC "-//W3C//DTD SVG 1.1//EN"
  "http://www.w3.org/Graphics/SVG/1.1/DTD/svg11.dtd">
<svg xmlns:xlink="http://www.w3.org/1999/xlink" width="427.78924pt" height="366.6332pt" viewBox="0 0 427.78924 366.6332" xmlns="http://www.w3.org/2000/svg" version="1.1">
 <metadata>
  <rdf:RDF xmlns:dc="http://purl.org/dc/elements/1.1/" xmlns:cc="http://creativecommons.org/ns#" xmlns:rdf="http://www.w3.org/1999/02/22-rdf-syntax-ns#">
   <cc:Work>
    <dc:type rdf:resource="http://purl.org/dc/dcmitype/StillImage"/>
    <dc:date>2026-06-14T13:01:56.343620</dc:date>
    <dc:format>image/svg+xml</dc:format>
    <dc:creator>
     <cc:Agent>
      <dc:title>Matplotlib v3.10.8, https://matplotlib.org/</dc:title>
     </cc:Agent>
    </dc:creator>
   </cc:Work>
  </rdf:RDF>
 </metadata>
 <defs>
  <style type="text/css">*{stroke-linejoin: round; stroke-linecap: butt}</style>
 </defs>
 <g id="figure_1">
  <g id="patch_1">
   <path d="M 0 366.6332 
L 427.78924 366.6332 
L 427.78924 -0 
L 0 -0 
L 0 366.6332 
z
" style="fill: none"/>
  </g>
  <g id="axes_1">
   <g id="patch_2">
    <path d="M 85.78924 214.163883 
L 420.58924 214.163883 
L 420.58924 33.8712 
L 85.78924 33.8712 
L 85.78924 214.163883 
z
" style="fill: none"/>
   </g>
   <g id="FillBetweenPolyCollection_1">
    <defs>
     <path id="m2ae94b4a6c" d="M 101.007422 -277.565017 
L 101.007422 -152.469317 
L 107.094695 -152.469317 
L 107.094695 -152.469317 
L 113.181967 -152.469317 
L 113.181967 -152.469317 
L 119.26924 -152.469317 
L 119.26924 -152.469317 
L 125.356513 -152.469317 
L 125.356513 -152.469317 
L 131.443785 -152.469317 
L 131.443785 -152.469317 
L 137.531058 -152.469317 
L 137.531058 -152.469317 
L 143.618331 -152.469317 
L 143.618331 -152.469317 
L 149.705604 -152.469317 
L 149.705604 -152.469317 
L 155.792876 -152.469317 
L 155.792876 -152.469317 
L 161.880149 -152.469317 
L 161.880149 -152.469317 
L 167.967422 -152.469317 
L 167.967422 -152.469317 
L 174.054695 -152.469317 
L 174.054695 -152.469317 
L 180.141967 -152.469317 
L 180.141967 -152.469317 
L 186.22924 -152.469317 
L 186.22924 -152.469317 
L 192.316513 -152.469317 
L 192.316513 -152.469317 
L 198.403785 -152.469317 
L 198.403785 -152.469317 
L 204.491058 -152.469317 
L 204.491058 -152.469317 
L 210.578331 -152.469317 
L 210.578331 -152.469317 
L 216.665604 -152.469317 
L 216.665604 -152.469317 
L 222.752876 -152.469317 
L 222.752876 -152.469317 
L 228.840149 -152.469317 
L 228.840149 -152.469317 
L 234.927422 -152.469317 
L 234.927422 -152.469317 
L 241.014695 -152.469317 
L 241.014695 -152.469317 
L 247.101967 -152.469317 
L 247.101967 -152.469317 
L 253.18924 -152.469317 
L 253.18924 -152.469317 
L 259.276513 -152.469317 
L 259.276513 -152.469317 
L 265.363785 -152.469317 
L 265.363785 -152.469317 
L 271.451058 -152.469317 
L 271.451058 -152.469317 
L 277.538331 -152.469317 
L 277.538331 -152.469317 
L 283.625604 -152.469317 
L 283.625604 -152.469317 
L 289.712876 -152.469317 
L 289.712876 -152.469317 
L 295.800149 -152.469317 
L 295.800149 -152.469317 
L 301.887422 -152.469317 
L 301.887422 -152.469317 
L 307.974695 -152.469317 
L 307.974695 -152.469317 
L 314.061967 -152.469317 
L 314.061967 -152.469317 
L 320.14924 -152.469317 
L 320.14924 -152.469317 
L 326.236513 -152.469317 
L 326.236513 -152.469317 
L 332.323785 -152.469317 
L 332.323785 -152.469317 
L 338.411058 -152.469317 
L 338.411058 -152.469317 
L 344.498331 -152.469317 
L 344.498331 -152.469317 
L 350.585604 -152.469317 
L 350.585604 -152.469317 
L 356.672876 -152.469317 
L 356.672876 -152.469317 
L 362.760149 -152.469317 
L 362.760149 -152.469317 
L 368.847422 -152.469317 
L 368.847422 -152.469317 
L 374.934695 -152.469317 
L 374.934695 -152.469317 
L 381.021967 -152.469317 
L 381.021967 -152.469317 
L 387.10924 -152.469317 
L 387.10924 -152.469317 
L 393.196513 -152.469317 
L 393.196513 -152.469317 
L 399.283785 -152.469317 
L 399.283785 -152.469317 
L 405.371058 -152.469317 
L 405.371058 -152.469317 
L 405.371058 -270.344026 
L 405.371058 -270.344026 
L 405.371058 -270.344026 
L 399.283785 -270.344026 
L 399.283785 -159.750554 
L 393.196513 -159.750554 
L 393.196513 -157.970051 
L 387.10924 -157.970051 
L 387.10924 -157.331006 
L 381.021967 -157.331006 
L 381.021967 -156.545648 
L 374.934695 -156.545648 
L 374.934695 -156.143286 
L 368.847422 -156.143286 
L 368.847422 -156.563937 
L 362.760149 -156.563937 
L 362.760149 -156.938327 
L 356.672876 -156.938327 
L 356.672876 -157.412769 
L 350.585604 -157.412769 
L 350.585604 -156.836123 
L 344.498331 -156.836123 
L 344.498331 -154.314371 
L 338.411058 -154.314371 
L 338.411058 -153.135258 
L 332.323785 -153.135258 
L 332.323785 -155.404189 
L 326.236513 -155.404189 
L 326.236513 -153.070708 
L 320.14924 -153.070708 
L 320.14924 -152.804977 
L 314.061967 -152.804977 
L 314.061967 -153.012613 
L 307.974695 -153.012613 
L 307.974695 -152.941608 
L 301.887422 -152.941608 
L 301.887422 -152.711379 
L 295.800149 -152.711379 
L 295.800149 -152.64145 
L 289.712876 -152.64145 
L 289.712876 -152.653285 
L 283.625604 -152.653285 
L 283.625604 -152.946987 
L 277.538331 -152.946987 
L 277.538331 -153.171836 
L 271.451058 -153.171836 
L 271.451058 -152.883513 
L 265.363785 -152.883513 
L 265.363785 -152.830797 
L 259.276513 -152.830797 
L 259.276513 -157.982961 
L 253.18924 -157.982961 
L 253.18924 -154.331584 
L 247.101967 -154.331584 
L 247.101967 -152.78346 
L 241.014695 -152.78346 
L 241.014695 -152.754413 
L 234.927422 -152.754413 
L 234.927422 -153.158926 
L 228.840149 -153.158926 
L 228.840149 -152.944835 
L 222.752876 -152.944835 
L 222.752876 -152.672649 
L 216.665604 -152.672649 
L 216.665604 -152.617782 
L 210.578331 -152.617782 
L 210.578331 -152.842631 
L 204.491058 -152.842631 
L 204.491058 -153.006158 
L 198.403785 -153.006158 
L 198.403785 -153.534392 
L 192.316513 -153.534392 
L 192.316513 -152.774854 
L 186.22924 -152.774854 
L 186.22924 -153.084694 
L 180.141967 -153.084694 
L 180.141967 -155.357928 
L 174.054695 -155.357928 
L 174.054695 -153.177215 
L 167.967422 -153.177215 
L 167.967422 -154.354176 
L 161.880149 -154.354176 
L 161.880149 -156.300358 
L 155.792876 -156.300358 
L 155.792876 -157.908728 
L 149.705604 -157.908728 
L 149.705604 -157.842027 
L 143.618331 -157.842027 
L 143.618331 -156.614501 
L 137.531058 -156.614501 
L 137.531058 -156.112087 
L 131.443785 -156.112087 
L 131.443785 -156.55533 
L 125.356513 -156.55533 
L 125.356513 -157.569841 
L 119.26924 -157.569841 
L 119.26924 -157.847406 
L 113.181967 -157.847406 
L 113.181967 -159.805422 
L 107.094695 -159.805422 
L 107.094695 -277.565017 
L 101.007422 -277.565017 
z
" style="stroke: #ebcb8b; stroke-width: 2"/>
    </defs>
    <g clip-path="url(#pbc113fa0fb)">
     <use xlink:href="#m2ae94b4a6c" x="0" y="366.6332" style="fill: #ebcb8b; fill-opacity: 0.2; stroke: #ebcb8b; stroke-width: 2"/>
    </g>
   </g>
   <g id="matplotlib.axis_1">
    <g id="xtick_1">
     <g id="line2d_1">
      <path d="M 101.007422 214.163883 
L 101.007422 33.8712 
" clip-path="url(#pbc113fa0fb)" style="fill: none; stroke-dasharray: 2.96,1.28; stroke-dashoffset: 0; stroke: #3b4252; stroke-opacity: 0.3; stroke-width: 0.8"/>
     </g>
     <g id="line2d_2">
      <defs>
       <path id="m6d7a00d0fb" d="M 0 0 
L 0 4.8 
" style="stroke: #2e3440"/>
      </defs>
      <g>
       <use xlink:href="#m6d7a00d0fb" x="101.007422" y="214.163883" style="fill: #2e3440; stroke: #2e3440"/>
      </g>
     </g>
    </g>
    <g id="xtick_2">
     <g id="line2d_3">
      <path d="M 177.098331 214.163883 
L 177.098331 33.8712 
" clip-path="url(#pbc113fa0fb)" style="fill: none; stroke-dasharray: 2.96,1.28; stroke-dashoffset: 0; stroke: #3b4252; stroke-opacity: 0.3; stroke-width: 0.8"/>
     </g>
     <g id="line2d_4">
      <g>
       <use xlink:href="#m6d7a00d0fb" x="177.098331" y="214.163883" style="fill: #2e3440; stroke: #2e3440"/>
      </g>
     </g>
    </g>
    <g id="xtick_3">
     <g id="line2d_5">
      <path d="M 253.18924 214.163883 
L 253.18924 33.8712 
" clip-path="url(#pbc113fa0fb)" style="fill: none; stroke-dasharray: 2.96,1.28; stroke-dashoffset: 0; stroke: #3b4252; stroke-opacity: 0.3; stroke-width: 0.8"/>
     </g>
     <g id="line2d_6">
      <g>
       <use xlink:href="#m6d7a00d0fb" x="253.18924" y="214.163883" style="fill: #2e3440; stroke: #2e3440"/>
      </g>
     </g>
    </g>
    <g id="xtick_4">
     <g id="line2d_7">
      <path d="M 329.280149 214.163883 
L 329.280149 33.8712 
" clip-path="url(#pbc113fa0fb)" style="fill: none; stroke-dasharray: 2.96,1.28; stroke-dashoffset: 0; stroke: #3b4252; stroke-opacity: 0.3; stroke-width: 0.8"/>
     </g>
     <g id="line2d_8">
      <g>
       <use xlink:href="#m6d7a00d0fb" x="329.280149" y="214.163883" style="fill: #2e3440; stroke: #2e3440"/>
      </g>
     </g>
    </g>
    <g id="xtick_5">
     <g id="line2d_9">
      <path d="M 405.371058 214.163883 
L 405.371058 33.8712 
" clip-path="url(#pbc113fa0fb)" style="fill: none; stroke-dasharray: 2.96,1.28; stroke-dashoffset: 0; stroke: #3b4252; stroke-opacity: 0.3; stroke-width: 0.8"/>
     </g>
     <g id="line2d_10">
      <g>
       <use xlink:href="#m6d7a00d0fb" x="405.371058" y="214.163883" style="fill: #2e3440; stroke: #2e3440"/>
      </g>
     </g>
    </g>
   </g>
   <g id="matplotlib.axis_2">
    <g id="ytick_1">
     <g id="line2d_11">
      <path d="M 85.78924 214.163883 
L 420.58924 214.163883 
" clip-path="url(#pbc113fa0fb)" style="fill: none; stroke-dasharray: 2.96,1.28; stroke-dashoffset: 0; stroke: #3b4252; stroke-opacity: 0.3; stroke-width: 0.8"/>
     </g>
     <g id="line2d_12">
      <defs>
       <path id="m05044209e5" d="M 0 0 
L -4.8 0 
" style="stroke: #2e3440"/>
      </defs>
      <g>
       <use xlink:href="#m05044209e5" x="85.78924" y="214.163883" style="fill: #2e3440; stroke: #2e3440"/>
      </g>
     </g>
     <g id="text_1">
      <!-- 0.0 -->
      <g style="fill: #2e3440" transform="translate(55.09764 219.513183) scale(0.1408 -0.1408)">
       <defs>
        <path id="DejaVuSans-30" d="M 2034 4250 
Q 1547 4250 1301 3770 
Q 1056 3291 1056 2328 
Q 1056 1369 1301 889 
Q 1547 409 2034 409 
Q 2525 409 2770 889 
Q 3016 1369 3016 2328 
Q 3016 3291 2770 3770 
Q 2525 4250 2034 4250 
z
M 2034 4750 
Q 2819 4750 3233 4129 
Q 3647 3509 3647 2328 
Q 3647 1150 3233 529 
Q 2819 -91 2034 -91 
Q 1250 -91 836 529 
Q 422 1150 422 2328 
Q 422 3509 836 4129 
Q 1250 4750 2034 4750 
z
" transform="scale(0.015625)"/>
        <path id="DejaVuSans-2e" d="M 684 794 
L 1344 794 
L 1344 0 
L 684 0 
L 684 794 
z
" transform="scale(0.015625)"/>
       </defs>
       <use xlink:href="#DejaVuSans-30"/>
       <use xlink:href="#DejaVuSans-2e" transform="translate(63.623047 0)"/>
       <use xlink:href="#DejaVuSans-30" transform="translate(95.410156 0)"/>
      </g>
     </g>
    </g>
    <g id="ytick_2">
     <g id="line2d_13">
      <path d="M 85.78924 178.324661 
L 420.58924 178.324661 
" clip-path="url(#pbc113fa0fb)" style="fill: none; stroke-dasharray: 2.96,1.28; stroke-dashoffset: 0; stroke: #3b4252; stroke-opacity: 0.3; stroke-width: 0.8"/>
     </g>
     <g id="line2d_14">
      <g>
       <use xlink:href="#m05044209e5" x="85.78924" y="178.324661" style="fill: #2e3440; stroke: #2e3440"/>
      </g>
     </g>
     <g id="text_2">
      <!-- 2.5 -->
      <g style="fill: #2e3440" transform="translate(55.09764 183.673961) scale(0.1408 -0.1408)">
       <defs>
        <path id="DejaVuSans-32" d="M 1228 531 
L 3431 531 
L 3431 0 
L 469 0 
L 469 531 
Q 828 903 1448 1529 
Q 2069 2156 2228 2338 
Q 2531 2678 2651 2914 
Q 2772 3150 2772 3378 
Q 2772 3750 2511 3984 
Q 2250 4219 1831 4219 
Q 1534 4219 1204 4116 
Q 875 4013 500 3803 
L 500 4441 
Q 881 4594 1212 4672 
Q 1544 4750 1819 4750 
Q 2544 4750 2975 4387 
Q 3406 4025 3406 3419 
Q 3406 3131 3298 2873 
Q 3191 2616 2906 2266 
Q 2828 2175 2409 1742 
Q 1991 1309 1228 531 
z
" transform="scale(0.015625)"/>
        <path id="DejaVuSans-35" d="M 691 4666 
L 3169 4666 
L 3169 4134 
L 1269 4134 
L 1269 2991 
Q 1406 3038 1543 3061 
Q 1681 3084 1819 3084 
Q 2600 3084 3056 2656 
Q 3513 2228 3513 1497 
Q 3513 744 3044 326 
Q 2575 -91 1722 -91 
Q 1428 -91 1123 -41 
Q 819 9 494 109 
L 494 744 
Q 775 591 1075 516 
Q 1375 441 1709 441 
Q 2250 441 2565 725 
Q 2881 1009 2881 1497 
Q 2881 1984 2565 2268 
Q 2250 2553 1709 2553 
Q 1456 2553 1204 2497 
Q 953 2441 691 2322 
L 691 4666 
z
" transform="scale(0.015625)"/>
       </defs>
       <use xlink:href="#DejaVuSans-32"/>
       <use xlink:href="#DejaVuSans-2e" transform="translate(63.623047 0)"/>
       <use xlink:href="#DejaVuSans-35" transform="translate(95.410156 0)"/>
      </g>
     </g>
    </g>
    <g id="ytick_3">
     <g id="line2d_15">
      <path d="M 85.78924 142.485439 
L 420.58924 142.485439 
" clip-path="url(#pbc113fa0fb)" style="fill: none; stroke-dasharray: 2.96,1.28; stroke-dashoffset: 0; stroke: #3b4252; stroke-opacity: 0.3; stroke-width: 0.8"/>
     </g>
     <g id="line2d_16">
      <g>
       <use xlink:href="#m05044209e5" x="85.78924" y="142.485439" style="fill: #2e3440; stroke: #2e3440"/>
      </g>
     </g>
     <g id="text_3">
      <!-- 5.0 -->
      <g style="fill: #2e3440" transform="translate(55.09764 147.834739) scale(0.1408 -0.1408)">
       <use xlink:href="#DejaVuSans-35"/>
       <use xlink:href="#DejaVuSans-2e" transform="translate(63.623047 0)"/>
       <use xlink:href="#DejaVuSans-30" transform="translate(95.410156 0)"/>
      </g>
     </g>
    </g>
    <g id="ytick_4">
     <g id="line2d_17">
      <path d="M 85.78924 106.646217 
L 420.58924 106.646217 
" clip-path="url(#pbc113fa0fb)" style="fill: none; stroke-dasharray: 2.96,1.28; stroke-dashoffset: 0; stroke: #3b4252; stroke-opacity: 0.3; stroke-width: 0.8"/>
     </g>
     <g id="line2d_18">
      <g>
       <use xlink:href="#m05044209e5" x="85.78924" y="106.646217" style="fill: #2e3440; stroke: #2e3440"/>
      </g>
     </g>
     <g id="text_4">
      <!-- 7.5 -->
      <g style="fill: #2e3440" transform="translate(55.09764 111.995517) scale(0.1408 -0.1408)">
       <defs>
        <path id="DejaVuSans-37" d="M 525 4666 
L 3525 4666 
L 3525 4397 
L 1831 0 
L 1172 0 
L 2766 4134 
L 525 4134 
L 525 4666 
z
" transform="scale(0.015625)"/>
       </defs>
       <use xlink:href="#DejaVuSans-37"/>
       <use xlink:href="#DejaVuSans-2e" transform="translate(63.623047 0)"/>
       <use xlink:href="#DejaVuSans-35" transform="translate(95.410156 0)"/>
      </g>
     </g>
    </g>
    <g id="ytick_5">
     <g id="line2d_19">
      <path d="M 85.78924 70.806995 
L 420.58924 70.806995 
" clip-path="url(#pbc113fa0fb)" style="fill: none; stroke-dasharray: 2.96,1.28; stroke-dashoffset: 0; stroke: #3b4252; stroke-opacity: 0.3; stroke-width: 0.8"/>
     </g>
     <g id="line2d_20">
      <g>
       <use xlink:href="#m05044209e5" x="85.78924" y="70.806995" style="fill: #2e3440; stroke: #2e3440"/>
      </g>
     </g>
     <g id="text_5">
      <!-- 10.0 -->
      <g style="fill: #2e3440" transform="translate(46.13924 76.156295) scale(0.1408 -0.1408)">
       <defs>
        <path id="DejaVuSans-31" d="M 794 531 
L 1825 531 
L 1825 4091 
L 703 3866 
L 703 4441 
L 1819 4666 
L 2450 4666 
L 2450 531 
L 3481 531 
L 3481 0 
L 794 0 
L 794 531 
z
" transform="scale(0.015625)"/>
       </defs>
       <use xlink:href="#DejaVuSans-31"/>
       <use xlink:href="#DejaVuSans-30" transform="translate(63.623047 0)"/>
       <use xlink:href="#DejaVuSans-2e" transform="translate(127.246094 0)"/>
       <use xlink:href="#DejaVuSans-30" transform="translate(159.033203 0)"/>
      </g>
     </g>
    </g>
    <g id="ytick_6">
     <g id="line2d_21">
      <path d="M 85.78924 34.967773 
L 420.58924 34.967773 
" clip-path="url(#pbc113fa0fb)" style="fill: none; stroke-dasharray: 2.96,1.28; stroke-dashoffset: 0; stroke: #3b4252; stroke-opacity: 0.3; stroke-width: 0.8"/>
     </g>
     <g id="line2d_22">
      <g>
       <use xlink:href="#m05044209e5" x="85.78924" y="34.967773" style="fill: #2e3440; stroke: #2e3440"/>
      </g>
     </g>
     <g id="text_6">
      <!-- 12.5 -->
      <g style="fill: #2e3440" transform="translate(46.13924 40.317073) scale(0.1408 -0.1408)">
       <use xlink:href="#DejaVuSans-31"/>
       <use xlink:href="#DejaVuSans-32" transform="translate(63.623047 0)"/>
       <use xlink:href="#DejaVuSans-2e" transform="translate(127.246094 0)"/>
       <use xlink:href="#DejaVuSans-35" transform="translate(159.033203 0)"/>
      </g>
     </g>
    </g>
    <g id="text_7">
     <!-- Density -->
     <g style="fill: #2e3440" transform="translate(32.94484 153.214741) rotate(-90) scale(0.1536 -0.1536)">
      <defs>
       <path id="DejaVuSans-44" d="M 1259 4147 
L 1259 519 
L 2022 519 
Q 2988 519 3436 956 
Q 3884 1394 3884 2338 
Q 3884 3275 3436 3711 
Q 2988 4147 2022 4147 
L 1259 4147 
z
M 628 4666 
L 1925 4666 
Q 3281 4666 3915 4102 
Q 4550 3538 4550 2338 
Q 4550 1131 3912 565 
Q 3275 0 1925 0 
L 628 0 
L 628 4666 
z
" transform="scale(0.015625)"/>
       <path id="DejaVuSans-65" d="M 3597 1894 
L 3597 1613 
L 953 1613 
Q 991 1019 1311 708 
Q 1631 397 2203 397 
Q 2534 397 2845 478 
Q 3156 559 3463 722 
L 3463 178 
Q 3153 47 2828 -22 
Q 2503 -91 2169 -91 
Q 1331 -91 842 396 
Q 353 884 353 1716 
Q 353 2575 817 3079 
Q 1281 3584 2069 3584 
Q 2775 3584 3186 3129 
Q 3597 2675 3597 1894 
z
M 3022 2063 
Q 3016 2534 2758 2815 
Q 2500 3097 2075 3097 
Q 1594 3097 1305 2825 
Q 1016 2553 972 2059 
L 3022 2063 
z
" transform="scale(0.015625)"/>
       <path id="DejaVuSans-6e" d="M 3513 2113 
L 3513 0 
L 2938 0 
L 2938 2094 
Q 2938 2591 2744 2837 
Q 2550 3084 2163 3084 
Q 1697 3084 1428 2787 
Q 1159 2491 1159 1978 
L 1159 0 
L 581 0 
L 581 3500 
L 1159 3500 
L 1159 2956 
Q 1366 3272 1645 3428 
Q 1925 3584 2291 3584 
Q 2894 3584 3203 3211 
Q 3513 2838 3513 2113 
z
" transform="scale(0.015625)"/>
       <path id="DejaVuSans-73" d="M 2834 3397 
L 2834 2853 
Q 2591 2978 2328 3040 
Q 2066 3103 1784 3103 
Q 1356 3103 1142 2972 
Q 928 2841 928 2578 
Q 928 2378 1081 2264 
Q 1234 2150 1697 2047 
L 1894 2003 
Q 2506 1872 2764 1633 
Q 3022 1394 3022 966 
Q 3022 478 2636 193 
Q 2250 -91 1575 -91 
Q 1294 -91 989 -36 
Q 684 19 347 128 
L 347 722 
Q 666 556 975 473 
Q 1284 391 1588 391 
Q 1994 391 2212 530 
Q 2431 669 2431 922 
Q 2431 1156 2273 1281 
Q 2116 1406 1581 1522 
L 1381 1569 
Q 847 1681 609 1914 
Q 372 2147 372 2553 
Q 372 3047 722 3315 
Q 1072 3584 1716 3584 
Q 2034 3584 2315 3537 
Q 2597 3491 2834 3397 
z
" transform="scale(0.015625)"/>
       <path id="DejaVuSans-69" d="M 603 3500 
L 1178 3500 
L 1178 0 
L 603 0 
L 603 3500 
z
M 603 4863 
L 1178 4863 
L 1178 4134 
L 603 4134 
L 603 4863 
z
" transform="scale(0.015625)"/>
       <path id="DejaVuSans-74" d="M 1172 4494 
L 1172 3500 
L 2356 3500 
L 2356 3053 
L 1172 3053 
L 1172 1153 
Q 1172 725 1289 603 
Q 1406 481 1766 481 
L 2356 481 
L 2356 0 
L 1766 0 
Q 1100 0 847 248 
Q 594 497 594 1153 
L 594 3053 
L 172 3053 
L 172 3500 
L 594 3500 
L 594 4494 
L 1172 4494 
z
" transform="scale(0.015625)"/>
       <path id="DejaVuSans-79" d="M 2059 -325 
Q 1816 -950 1584 -1140 
Q 1353 -1331 966 -1331 
L 506 -1331 
L 506 -850 
L 844 -850 
Q 1081 -850 1212 -737 
Q 1344 -625 1503 -206 
L 1606 56 
L 191 3500 
L 800 3500 
L 1894 763 
L 2988 3500 
L 3597 3500 
L 2059 -325 
z
" transform="scale(0.015625)"/>
      </defs>
      <use xlink:href="#DejaVuSans-44"/>
      <use xlink:href="#DejaVuSans-65" transform="translate(77.001953 0)"/>
      <use xlink:href="#DejaVuSans-6e" transform="translate(138.525391 0)"/>
      <use xlink:href="#DejaVuSans-73" transform="translate(201.904297 0)"/>
      <use xlink:href="#DejaVuSans-69" transform="translate(254.003906 0)"/>
      <use xlink:href="#DejaVuSans-74" transform="translate(281.787109 0)"/>
      <use xlink:href="#DejaVuSans-79" transform="translate(320.996094 0)"/>
     </g>
    </g>
   </g>
   <g id="FillBetweenPolyCollection_2">
    <defs>
     <path id="mddf7188e5e" d="M 101.007422 -288.069955 
L 101.007422 -152.469317 
L 107.094695 -152.469317 
L 107.094695 -152.469317 
L 113.181967 -152.469317 
L 113.181967 -152.469317 
L 119.26924 -152.469317 
L 119.26924 -152.469317 
L 125.356513 -152.469317 
L 125.356513 -152.469317 
L 131.443785 -152.469317 
L 131.443785 -152.469317 
L 137.531058 -152.469317 
L 137.531058 -152.469317 
L 143.618331 -152.469317 
L 143.618331 -152.469317 
L 149.705604 -152.469317 
L 149.705604 -152.469317 
L 155.792876 -152.469317 
L 155.792876 -152.469317 
L 161.880149 -152.469317 
L 161.880149 -152.469317 
L 167.967422 -152.469317 
L 167.967422 -152.469317 
L 174.054695 -152.469317 
L 174.054695 -152.469317 
L 180.141967 -152.469317 
L 180.141967 -152.469317 
L 186.22924 -152.469317 
L 186.22924 -152.469317 
L 192.316513 -152.469317 
L 192.316513 -152.469317 
L 198.403785 -152.469317 
L 198.403785 -152.469317 
L 204.491058 -152.469317 
L 204.491058 -152.469317 
L 210.578331 -152.469317 
L 210.578331 -152.469317 
L 216.665604 -152.469317 
L 216.665604 -152.469317 
L 222.752876 -152.469317 
L 222.752876 -152.469317 
L 228.840149 -152.469317 
L 228.840149 -152.469317 
L 234.927422 -152.469317 
L 234.927422 -152.469317 
L 241.014695 -152.469317 
L 241.014695 -152.469317 
L 247.101967 -152.469317 
L 247.101967 -152.469317 
L 253.18924 -152.469317 
L 253.18924 -152.469317 
L 259.276513 -152.469317 
L 259.276513 -152.469317 
L 265.363785 -152.469317 
L 265.363785 -152.469317 
L 271.451058 -152.469317 
L 271.451058 -152.469317 
L 277.538331 -152.469317 
L 277.538331 -152.469317 
L 283.625604 -152.469317 
L 283.625604 -152.469317 
L 289.712876 -152.469317 
L 289.712876 -152.469317 
L 295.800149 -152.469317 
L 295.800149 -152.469317 
L 301.887422 -152.469317 
L 301.887422 -152.469317 
L 307.974695 -152.469317 
L 307.974695 -152.469317 
L 314.061967 -152.469317 
L 314.061967 -152.469317 
L 320.14924 -152.469317 
L 320.14924 -152.469317 
L 326.236513 -152.469317 
L 326.236513 -152.469317 
L 332.323785 -152.469317 
L 332.323785 -152.469317 
L 338.411058 -152.469317 
L 338.411058 -152.469317 
L 344.498331 -152.469317 
L 344.498331 -152.469317 
L 350.585604 -152.469317 
L 350.585604 -152.469317 
L 356.672876 -152.469317 
L 356.672876 -152.469317 
L 362.760149 -152.469317 
L 362.760149 -152.469317 
L 368.847422 -152.469317 
L 368.847422 -152.469317 
L 374.934695 -152.469317 
L 374.934695 -152.469317 
L 381.021967 -152.469317 
L 381.021967 -152.469317 
L 387.10924 -152.469317 
L 387.10924 -152.469317 
L 393.196513 -152.469317 
L 393.196513 -152.469317 
L 399.283785 -152.469317 
L 399.283785 -152.469317 
L 405.371058 -152.469317 
L 405.371058 -152.469317 
L 405.371058 -324.176634 
L 405.371058 -324.176634 
L 405.371058 -324.176634 
L 399.283785 -324.176634 
L 399.283785 -152.870502 
L 393.196513 -152.870502 
L 393.196513 -157.016084 
L 387.10924 -157.016084 
L 387.10924 -153.271688 
L 381.021967 -153.271688 
L 381.021967 -160.626752 
L 374.934695 -160.626752 
L 374.934695 -157.818455 
L 368.847422 -157.818455 
L 368.847422 -152.736774 
L 362.760149 -152.736774 
L 362.760149 -156.748627 
L 356.672876 -156.748627 
L 356.672876 -153.004231 
L 350.585604 -153.004231 
L 350.585604 -152.469317 
L 344.498331 -152.469317 
L 344.498331 -152.736774 
L 338.411058 -152.736774 
L 338.411058 -152.603046 
L 332.323785 -152.603046 
L 332.323785 -152.469317 
L 326.236513 -152.469317 
L 326.236513 -152.469317 
L 320.14924 -152.469317 
L 320.14924 -152.469317 
L 314.061967 -152.469317 
L 314.061967 -152.469317 
L 307.974695 -152.469317 
L 307.974695 -152.603046 
L 301.887422 -152.603046 
L 301.887422 -152.736774 
L 295.800149 -152.736774 
L 295.800149 -152.603046 
L 289.712876 -152.603046 
L 289.712876 -152.736774 
L 283.625604 -152.736774 
L 283.625604 -153.405416 
L 277.538331 -153.405416 
L 277.538331 -152.469317 
L 271.451058 -152.469317 
L 271.451058 -152.603046 
L 265.363785 -152.603046 
L 265.363785 -152.870502 
L 259.276513 -152.870502 
L 259.276513 -154.876429 
L 253.18924 -154.876429 
L 253.18924 -154.341515 
L 247.101967 -154.341515 
L 247.101967 -152.469317 
L 241.014695 -152.469317 
L 241.014695 -152.736774 
L 234.927422 -152.736774 
L 234.927422 -152.469317 
L 228.840149 -152.469317 
L 228.840149 -153.137959 
L 222.752876 -153.137959 
L 222.752876 -152.736774 
L 216.665604 -152.736774 
L 216.665604 -152.469317 
L 210.578331 -152.469317 
L 210.578331 -152.469317 
L 204.491058 -152.469317 
L 204.491058 -152.469317 
L 198.403785 -152.469317 
L 198.403785 -152.603046 
L 192.316513 -152.603046 
L 192.316513 -152.469317 
L 186.22924 -152.469317 
L 186.22924 -152.469317 
L 180.141967 -152.469317 
L 180.141967 -152.469317 
L 174.054695 -152.469317 
L 174.054695 -153.137959 
L 167.967422 -153.137959 
L 167.967422 -152.736774 
L 161.880149 -152.736774 
L 161.880149 -152.736774 
L 155.792876 -152.736774 
L 155.792876 -153.004231 
L 149.705604 -153.004231 
L 149.705604 -155.812528 
L 143.618331 -155.812528 
L 143.618331 -152.603046 
L 137.531058 -152.603046 
L 137.531058 -157.016084 
L 131.443785 -157.016084 
L 131.443785 -155.6788 
L 125.356513 -155.6788 
L 125.356513 -153.137959 
L 119.26924 -153.137959 
L 119.26924 -157.149812 
L 113.181967 -157.149812 
L 113.181967 -152.603046 
L 107.094695 -152.603046 
L 107.094695 -288.069955 
L 101.007422 -288.069955 
z
" style="stroke: #a3be8c; stroke-width: 2.5"/>
    </defs>
    <g clip-path="url(#pbc113fa0fb)">
     <use xlink:href="#mddf7188e5e" x="0" y="366.6332" style="fill: #a3be8c; fill-opacity: 0.35; stroke: #a3be8c; stroke-width: 2.5"/>
    </g>
   </g>
   <g id="patch_3">
    <path d="M 85.78924 214.163883 
L 85.78924 33.8712 
" style="fill: none; stroke: #3b4252; stroke-width: 1.5; stroke-linejoin: miter; stroke-linecap: square"/>
   </g>
   <g id="patch_4">
    <path d="M 420.58924 214.163883 
L 420.58924 33.8712 
" style="fill: none; stroke: #3b4252; stroke-width: 1.5; stroke-linejoin: miter; stroke-linecap: square"/>
   </g>
   <g id="patch_5">
    <path d="M 85.78924 214.163883 
L 420.58924 214.163883 
" style="fill: none; stroke: #3b4252; stroke-width: 1.5; stroke-linejoin: miter; stroke-linecap: square"/>
   </g>
   <g id="patch_6">
    <path d="M 85.78924 33.8712 
L 420.58924 33.8712 
" style="fill: none; stroke: #3b4252; stroke-width: 1.5; stroke-linejoin: miter; stroke-linecap: square"/>
   </g>
   <g id="text_8">
    <!-- Mycobacterium tuberculosis -->
    <g style="fill: #2e3440" transform="translate(144.95284 18.8712) scale(0.1536 -0.1536)">
     <defs>
      <path id="DejaVuSans-4d" d="M 628 4666 
L 1569 4666 
L 2759 1491 
L 3956 4666 
L 4897 4666 
L 4897 0 
L 4281 0 
L 4281 4097 
L 3078 897 
L 2444 897 
L 1241 4097 
L 1241 0 
L 628 0 
L 628 4666 
z
" transform="scale(0.015625)"/>
      <path id="DejaVuSans-63" d="M 3122 3366 
L 3122 2828 
Q 2878 2963 2633 3030 
Q 2388 3097 2138 3097 
Q 1578 3097 1268 2742 
Q 959 2388 959 1747 
Q 959 1106 1268 751 
Q 1578 397 2138 397 
Q 2388 397 2633 464 
Q 2878 531 3122 666 
L 3122 134 
Q 2881 22 2623 -34 
Q 2366 -91 2075 -91 
Q 1284 -91 818 406 
Q 353 903 353 1747 
Q 353 2603 823 3093 
Q 1294 3584 2113 3584 
Q 2378 3584 2631 3529 
Q 2884 3475 3122 3366 
z
" transform="scale(0.015625)"/>
      <path id="DejaVuSans-6f" d="M 1959 3097 
Q 1497 3097 1228 2736 
Q 959 2375 959 1747 
Q 959 1119 1226 758 
Q 1494 397 1959 397 
Q 2419 397 2687 759 
Q 2956 1122 2956 1747 
Q 2956 2369 2687 2733 
Q 2419 3097 1959 3097 
z
M 1959 3584 
Q 2709 3584 3137 3096 
Q 3566 2609 3566 1747 
Q 3566 888 3137 398 
Q 2709 -91 1959 -91 
Q 1206 -91 779 398 
Q 353 888 353 1747 
Q 353 2609 779 3096 
Q 1206 3584 1959 3584 
z
" transform="scale(0.015625)"/>
      <path id="DejaVuSans-62" d="M 3116 1747 
Q 3116 2381 2855 2742 
Q 2594 3103 2138 3103 
Q 1681 3103 1420 2742 
Q 1159 2381 1159 1747 
Q 1159 1113 1420 752 
Q 1681 391 2138 391 
Q 2594 391 2855 752 
Q 3116 1113 3116 1747 
z
M 1159 2969 
Q 1341 3281 1617 3432 
Q 1894 3584 2278 3584 
Q 2916 3584 3314 3078 
Q 3713 2572 3713 1747 
Q 3713 922 3314 415 
Q 2916 -91 2278 -91 
Q 1894 -91 1617 61 
Q 1341 213 1159 525 
L 1159 0 
L 581 0 
L 581 4863 
L 1159 4863 
L 1159 2969 
z
" transform="scale(0.015625)"/>
      <path id="DejaVuSans-61" d="M 2194 1759 
Q 1497 1759 1228 1600 
Q 959 1441 959 1056 
Q 959 750 1161 570 
Q 1363 391 1709 391 
Q 2188 391 2477 730 
Q 2766 1069 2766 1631 
L 2766 1759 
L 2194 1759 
z
M 3341 1997 
L 3341 0 
L 2766 0 
L 2766 531 
Q 2569 213 2275 61 
Q 1981 -91 1556 -91 
Q 1019 -91 701 211 
Q 384 513 384 1019 
Q 384 1609 779 1909 
Q 1175 2209 1959 2209 
L 2766 2209 
L 2766 2266 
Q 2766 2663 2505 2880 
Q 2244 3097 1772 3097 
Q 1472 3097 1187 3025 
Q 903 2953 641 2809 
L 641 3341 
Q 956 3463 1253 3523 
Q 1550 3584 1831 3584 
Q 2591 3584 2966 3190 
Q 3341 2797 3341 1997 
z
" transform="scale(0.015625)"/>
      <path id="DejaVuSans-72" d="M 2631 2963 
Q 2534 3019 2420 3045 
Q 2306 3072 2169 3072 
Q 1681 3072 1420 2755 
Q 1159 2438 1159 1844 
L 1159 0 
L 581 0 
L 581 3500 
L 1159 3500 
L 1159 2956 
Q 1341 3275 1631 3429 
Q 1922 3584 2338 3584 
Q 2397 3584 2469 3576 
Q 2541 3569 2628 3553 
L 2631 2963 
z
" transform="scale(0.015625)"/>
      <path id="DejaVuSans-75" d="M 544 1381 
L 544 3500 
L 1119 3500 
L 1119 1403 
Q 1119 906 1312 657 
Q 1506 409 1894 409 
Q 2359 409 2629 706 
Q 2900 1003 2900 1516 
L 2900 3500 
L 3475 3500 
L 3475 0 
L 2900 0 
L 2900 538 
Q 2691 219 2414 64 
Q 2138 -91 1772 -91 
Q 1169 -91 856 284 
Q 544 659 544 1381 
z
M 1991 3584 
L 1991 3584 
z
" transform="scale(0.015625)"/>
      <path id="DejaVuSans-6d" d="M 3328 2828 
Q 3544 3216 3844 3400 
Q 4144 3584 4550 3584 
Q 5097 3584 5394 3201 
Q 5691 2819 5691 2113 
L 5691 0 
L 5113 0 
L 5113 2094 
Q 5113 2597 4934 2840 
Q 4756 3084 4391 3084 
Q 3944 3084 3684 2787 
Q 3425 2491 3425 1978 
L 3425 0 
L 2847 0 
L 2847 2094 
Q 2847 2600 2669 2842 
Q 2491 3084 2119 3084 
Q 1678 3084 1418 2786 
Q 1159 2488 1159 1978 
L 1159 0 
L 581 0 
L 581 3500 
L 1159 3500 
L 1159 2956 
Q 1356 3278 1631 3431 
Q 1906 3584 2284 3584 
Q 2666 3584 2933 3390 
Q 3200 3197 3328 2828 
z
" transform="scale(0.015625)"/>
      <path id="DejaVuSans-20" transform="scale(0.015625)"/>
      <path id="DejaVuSans-6c" d="M 603 4863 
L 1178 4863 
L 1178 0 
L 603 0 
L 603 4863 
z
" transform="scale(0.015625)"/>
     </defs>
     <use xlink:href="#DejaVuSans-4d"/>
     <use xlink:href="#DejaVuSans-79" transform="translate(86.279297 0)"/>
     <use xlink:href="#DejaVuSans-63" transform="translate(145.458984 0)"/>
     <use xlink:href="#DejaVuSans-6f" transform="translate(200.439453 0)"/>
     <use xlink:href="#DejaVuSans-62" transform="translate(261.621094 0)"/>
     <use xlink:href="#DejaVuSans-61" transform="translate(325.097656 0)"/>
     <use xlink:href="#DejaVuSans-63" transform="translate(386.376953 0)"/>
     <use xlink:href="#DejaVuSans-74" transform="translate(441.357422 0)"/>
     <use xlink:href="#DejaVuSans-65" transform="translate(480.566406 0)"/>
     <use xlink:href="#DejaVuSans-72" transform="translate(542.089844 0)"/>
     <use xlink:href="#DejaVuSans-69" transform="translate(583.203125 0)"/>
     <use xlink:href="#DejaVuSans-75" transform="translate(610.986328 0)"/>
     <use xlink:href="#DejaVuSans-6d" transform="translate(674.365234 0)"/>
     <use xlink:href="#DejaVuSans-20" transform="translate(771.777344 0)"/>
     <use xlink:href="#DejaVuSans-74" transform="translate(803.564453 0)"/>
     <use xlink:href="#DejaVuSans-75" transform="translate(842.773438 0)"/>
     <use xlink:href="#DejaVuSans-62" transform="translate(906.152344 0)"/>
     <use xlink:href="#DejaVuSans-65" transform="translate(969.628906 0)"/>
     <use xlink:href="#DejaVuSans-72" transform="translate(1031.152344 0)"/>
     <use xlink:href="#DejaVuSans-63" transform="translate(1070.015625 0)"/>
     <use xlink:href="#DejaVuSans-75" transform="translate(1124.996094 0)"/>
     <use xlink:href="#DejaVuSans-6c" transform="translate(1188.375 0)"/>
     <use xlink:href="#DejaVuSans-6f" transform="translate(1216.158203 0)"/>
     <use xlink:href="#DejaVuSans-73" transform="translate(1277.339844 0)"/>
     <use xlink:href="#DejaVuSans-69" transform="translate(1329.439453 0)"/>
     <use xlink:href="#DejaVuSans-73" transform="translate(1357.222656 0)"/>
    </g>
   </g>
   <g id="legend_1">
    <g id="patch_7">
     <path d="M 113.710803 70.099584 
L 392.667678 70.099584 
Q 395.067678 70.099584 395.067678 67.699584 
L 395.067678 51.285834 
Q 395.067678 48.885834 392.667678 48.885834 
L 113.710803 48.885834 
Q 111.310803 48.885834 111.310803 51.285834 
L 111.310803 67.699584 
Q 111.310803 70.099584 113.710803 70.099584 
z
" style="fill: #ffffff; opacity: 0.8; stroke: #3b4252; stroke-width: 0.8; stroke-linejoin: miter"/>
    </g>
    <g id="patch_8">
     <path d="M 116.110803 62.803959 
L 140.110803 62.803959 
L 140.110803 54.403959 
L 116.110803 54.403959 
z
" style="fill: #ebcb8b; fill-opacity: 0.2; stroke: #ebcb8b; stroke-width: 2; stroke-linejoin: miter"/>
    </g>
    <g id="text_9">
     <!-- Random Networks -->
     <g style="fill: #2e3440" transform="translate(149.710803 62.803959) scale(0.12 -0.12)">
      <defs>
       <path id="DejaVuSans-52" d="M 2841 2188 
Q 3044 2119 3236 1894 
Q 3428 1669 3622 1275 
L 4263 0 
L 3584 0 
L 2988 1197 
Q 2756 1666 2539 1819 
Q 2322 1972 1947 1972 
L 1259 1972 
L 1259 0 
L 628 0 
L 628 4666 
L 2053 4666 
Q 2853 4666 3247 4331 
Q 3641 3997 3641 3322 
Q 3641 2881 3436 2590 
Q 3231 2300 2841 2188 
z
M 1259 4147 
L 1259 2491 
L 2053 2491 
Q 2509 2491 2742 2702 
Q 2975 2913 2975 3322 
Q 2975 3731 2742 3939 
Q 2509 4147 2053 4147 
L 1259 4147 
z
" transform="scale(0.015625)"/>
       <path id="DejaVuSans-64" d="M 2906 2969 
L 2906 4863 
L 3481 4863 
L 3481 0 
L 2906 0 
L 2906 525 
Q 2725 213 2448 61 
Q 2172 -91 1784 -91 
Q 1150 -91 751 415 
Q 353 922 353 1747 
Q 353 2572 751 3078 
Q 1150 3584 1784 3584 
Q 2172 3584 2448 3432 
Q 2725 3281 2906 2969 
z
M 947 1747 
Q 947 1113 1208 752 
Q 1469 391 1925 391 
Q 2381 391 2643 752 
Q 2906 1113 2906 1747 
Q 2906 2381 2643 2742 
Q 2381 3103 1925 3103 
Q 1469 3103 1208 2742 
Q 947 2381 947 1747 
z
" transform="scale(0.015625)"/>
       <path id="DejaVuSans-4e" d="M 628 4666 
L 1478 4666 
L 3547 763 
L 3547 4666 
L 4159 4666 
L 4159 0 
L 3309 0 
L 1241 3903 
L 1241 0 
L 628 0 
L 628 4666 
z
" transform="scale(0.015625)"/>
       <path id="DejaVuSans-77" d="M 269 3500 
L 844 3500 
L 1563 769 
L 2278 3500 
L 2956 3500 
L 3675 769 
L 4391 3500 
L 4966 3500 
L 4050 0 
L 3372 0 
L 2619 2869 
L 1863 0 
L 1184 0 
L 269 3500 
z
" transform="scale(0.015625)"/>
       <path id="DejaVuSans-6b" d="M 581 4863 
L 1159 4863 
L 1159 1991 
L 2875 3500 
L 3609 3500 
L 1753 1863 
L 3688 0 
L 2938 0 
L 1159 1709 
L 1159 0 
L 581 0 
L 581 4863 
z
" transform="scale(0.015625)"/>
      </defs>
      <use xlink:href="#DejaVuSans-52"/>
      <use xlink:href="#DejaVuSans-61" transform="translate(67.232422 0)"/>
      <use xlink:href="#DejaVuSans-6e" transform="translate(128.511719 0)"/>
      <use xlink:href="#DejaVuSans-64" transform="translate(191.890625 0)"/>
      <use xlink:href="#DejaVuSans-6f" transform="translate(255.367188 0)"/>
      <use xlink:href="#DejaVuSans-6d" transform="translate(316.548828 0)"/>
      <use xlink:href="#DejaVuSans-20" transform="translate(413.960938 0)"/>
      <use xlink:href="#DejaVuSans-4e" transform="translate(445.748047 0)"/>
      <use xlink:href="#DejaVuSans-65" transform="translate(520.552734 0)"/>
      <use xlink:href="#DejaVuSans-74" transform="translate(582.076172 0)"/>
      <use xlink:href="#DejaVuSans-77" transform="translate(621.285156 0)"/>
      <use xlink:href="#DejaVuSans-6f" transform="translate(703.072266 0)"/>
      <use xlink:href="#DejaVuSans-72" transform="translate(764.253906 0)"/>
      <use xlink:href="#DejaVuSans-6b" transform="translate(805.367188 0)"/>
      <use xlink:href="#DejaVuSans-73" transform="translate(863.277344 0)"/>
     </g>
    </g>
    <g id="patch_9">
     <path d="M 283.555803 62.803959 
L 307.555803 62.803959 
L 307.555803 54.403959 
L 283.555803 54.403959 
z
" style="fill: #a3be8c; fill-opacity: 0.35; stroke: #a3be8c; stroke-width: 2.5; stroke-linejoin: miter"/>
    </g>
    <g id="text_10">
     <!-- WT Network -->
     <g style="fill: #2e3440" transform="translate(317.155803 62.803959) scale(0.12 -0.12)">
      <defs>
       <path id="DejaVuSans-57" d="M 213 4666 
L 850 4666 
L 1831 722 
L 2809 4666 
L 3519 4666 
L 4500 722 
L 5478 4666 
L 6119 4666 
L 4947 0 
L 4153 0 
L 3169 4050 
L 2175 0 
L 1381 0 
L 213 4666 
z
" transform="scale(0.015625)"/>
       <path id="DejaVuSans-54" d="M -19 4666 
L 3928 4666 
L 3928 4134 
L 2272 4134 
L 2272 0 
L 1638 0 
L 1638 4134 
L -19 4134 
L -19 4666 
z
" transform="scale(0.015625)"/>
      </defs>
      <use xlink:href="#DejaVuSans-57"/>
      <use xlink:href="#DejaVuSans-54" transform="translate(98.876953 0)"/>
      <use xlink:href="#DejaVuSans-20" transform="translate(159.960938 0)"/>
      <use xlink:href="#DejaVuSans-4e" transform="translate(191.748047 0)"/>
      <use xlink:href="#DejaVuSans-65" transform="translate(266.552734 0)"/>
      <use xlink:href="#DejaVuSans-74" transform="translate(328.076172 0)"/>
      <use xlink:href="#DejaVuSans-77" transform="translate(367.285156 0)"/>
      <use xlink:href="#DejaVuSans-6f" transform="translate(449.072266 0)"/>
      <use xlink:href="#DejaVuSans-72" transform="translate(510.253906 0)"/>
      <use xlink:href="#DejaVuSans-6b" transform="translate(551.367188 0)"/>
     </g>
    </g>
   </g>
  </g>
  <g id="axes_2">
   <g id="patch_10">
    <path d="M 85.78924 311.0712 
L 420.58924 311.0712 
L 420.58924 220.924859 
L 85.78924 220.924859 
L 85.78924 311.0712 
z
" style="fill: none"/>
   </g>
   <g id="matplotlib.axis_3">
    <g id="xtick_6">
     <g id="line2d_23">
      <path d="M 101.007422 311.0712 
L 101.007422 220.924859 
" clip-path="url(#p83d427d958)" style="fill: none; stroke-dasharray: 2.96,1.28; stroke-dashoffset: 0; stroke: #3b4252; stroke-opacity: 0.3; stroke-width: 0.8"/>
     </g>
     <g id="line2d_24">
      <g>
       <use xlink:href="#m6d7a00d0fb" x="101.007422" y="311.0712" style="fill: #2e3440; stroke: #2e3440"/>
      </g>
     </g>
     <g id="text_11">
      <!-- −1.0 -->
      <g style="fill: #2e3440" transform="translate(83.912322 330.0698) scale(0.1408 -0.1408)">
       <defs>
        <path id="DejaVuSans-2212" d="M 678 2272 
L 4684 2272 
L 4684 1741 
L 678 1741 
L 678 2272 
z
" transform="scale(0.015625)"/>
       </defs>
       <use xlink:href="#DejaVuSans-2212"/>
       <use xlink:href="#DejaVuSans-31" transform="translate(83.789062 0)"/>
       <use xlink:href="#DejaVuSans-2e" transform="translate(147.412109 0)"/>
       <use xlink:href="#DejaVuSans-30" transform="translate(179.199219 0)"/>
      </g>
     </g>
    </g>
    <g id="xtick_7">
     <g id="line2d_25">
      <path d="M 177.098331 311.0712 
L 177.098331 220.924859 
" clip-path="url(#p83d427d958)" style="fill: none; stroke-dasharray: 2.96,1.28; stroke-dashoffset: 0; stroke: #3b4252; stroke-opacity: 0.3; stroke-width: 0.8"/>
     </g>
     <g id="line2d_26">
      <g>
       <use xlink:href="#m6d7a00d0fb" x="177.098331" y="311.0712" style="fill: #2e3440; stroke: #2e3440"/>
      </g>
     </g>
     <g id="text_12">
      <!-- −0.5 -->
      <g style="fill: #2e3440" transform="translate(160.003231 330.0698) scale(0.1408 -0.1408)">
       <use xlink:href="#DejaVuSans-2212"/>
       <use xlink:href="#DejaVuSans-30" transform="translate(83.789062 0)"/>
       <use xlink:href="#DejaVuSans-2e" transform="translate(147.412109 0)"/>
       <use xlink:href="#DejaVuSans-35" transform="translate(179.199219 0)"/>
      </g>
     </g>
    </g>
    <g id="xtick_8">
     <g id="line2d_27">
      <path d="M 253.18924 311.0712 
L 253.18924 220.924859 
" clip-path="url(#p83d427d958)" style="fill: none; stroke-dasharray: 2.96,1.28; stroke-dashoffset: 0; stroke: #3b4252; stroke-opacity: 0.3; stroke-width: 0.8"/>
     </g>
     <g id="line2d_28">
      <g>
       <use xlink:href="#m6d7a00d0fb" x="253.18924" y="311.0712" style="fill: #2e3440; stroke: #2e3440"/>
      </g>
     </g>
     <g id="text_13">
      <!-- 0.0 -->
      <g style="fill: #2e3440" transform="translate(241.99344 330.0698) scale(0.1408 -0.1408)">
       <use xlink:href="#DejaVuSans-30"/>
       <use xlink:href="#DejaVuSans-2e" transform="translate(63.623047 0)"/>
       <use xlink:href="#DejaVuSans-30" transform="translate(95.410156 0)"/>
      </g>
     </g>
    </g>
    <g id="xtick_9">
     <g id="line2d_29">
      <path d="M 329.280149 311.0712 
L 329.280149 220.924859 
" clip-path="url(#p83d427d958)" style="fill: none; stroke-dasharray: 2.96,1.28; stroke-dashoffset: 0; stroke: #3b4252; stroke-opacity: 0.3; stroke-width: 0.8"/>
     </g>
     <g id="line2d_30">
      <g>
       <use xlink:href="#m6d7a00d0fb" x="329.280149" y="311.0712" style="fill: #2e3440; stroke: #2e3440"/>
      </g>
     </g>
     <g id="text_14">
      <!-- 0.5 -->
      <g style="fill: #2e3440" transform="translate(318.084349 330.0698) scale(0.1408 -0.1408)">
       <use xlink:href="#DejaVuSans-30"/>
       <use xlink:href="#DejaVuSans-2e" transform="translate(63.623047 0)"/>
       <use xlink:href="#DejaVuSans-35" transform="translate(95.410156 0)"/>
      </g>
     </g>
    </g>
    <g id="xtick_10">
     <g id="line2d_31">
      <path d="M 405.371058 311.0712 
L 405.371058 220.924859 
" clip-path="url(#p83d427d958)" style="fill: none; stroke-dasharray: 2.96,1.28; stroke-dashoffset: 0; stroke: #3b4252; stroke-opacity: 0.3; stroke-width: 0.8"/>
     </g>
     <g id="line2d_32">
      <g>
       <use xlink:href="#m6d7a00d0fb" x="405.371058" y="311.0712" style="fill: #2e3440; stroke: #2e3440"/>
      </g>
     </g>
     <g id="text_15">
      <!-- 1.0 -->
      <g style="fill: #2e3440" transform="translate(394.175258 330.0698) scale(0.1408 -0.1408)">
       <use xlink:href="#DejaVuSans-31"/>
       <use xlink:href="#DejaVuSans-2e" transform="translate(63.623047 0)"/>
       <use xlink:href="#DejaVuSans-30" transform="translate(95.410156 0)"/>
      </g>
     </g>
    </g>
    <g id="text_16">
     <!-- Coherence Value ($C_{ij}$) -->
     <g style="fill: #2e3440" transform="translate(170.70604 354.6716) scale(0.1536 -0.1536)">
      <defs>
       <path id="DejaVuSans-43" d="M 4122 4306 
L 4122 3641 
Q 3803 3938 3442 4084 
Q 3081 4231 2675 4231 
Q 1875 4231 1450 3742 
Q 1025 3253 1025 2328 
Q 1025 1406 1450 917 
Q 1875 428 2675 428 
Q 3081 428 3442 575 
Q 3803 722 4122 1019 
L 4122 359 
Q 3791 134 3420 21 
Q 3050 -91 2638 -91 
Q 1578 -91 968 557 
Q 359 1206 359 2328 
Q 359 3453 968 4101 
Q 1578 4750 2638 4750 
Q 3056 4750 3426 4639 
Q 3797 4528 4122 4306 
z
" transform="scale(0.015625)"/>
       <path id="DejaVuSans-68" d="M 3513 2113 
L 3513 0 
L 2938 0 
L 2938 2094 
Q 2938 2591 2744 2837 
Q 2550 3084 2163 3084 
Q 1697 3084 1428 2787 
Q 1159 2491 1159 1978 
L 1159 0 
L 581 0 
L 581 4863 
L 1159 4863 
L 1159 2956 
Q 1366 3272 1645 3428 
Q 1925 3584 2291 3584 
Q 2894 3584 3203 3211 
Q 3513 2838 3513 2113 
z
" transform="scale(0.015625)"/>
       <path id="DejaVuSans-56" d="M 1831 0 
L 50 4666 
L 709 4666 
L 2188 738 
L 3669 4666 
L 4325 4666 
L 2547 0 
L 1831 0 
z
" transform="scale(0.015625)"/>
       <path id="DejaVuSans-28" d="M 1984 4856 
Q 1566 4138 1362 3434 
Q 1159 2731 1159 2009 
Q 1159 1288 1364 580 
Q 1569 -128 1984 -844 
L 1484 -844 
Q 1016 -109 783 600 
Q 550 1309 550 2009 
Q 550 2706 781 3412 
Q 1013 4119 1484 4856 
L 1984 4856 
z
" transform="scale(0.015625)"/>
       <path id="DejaVuSans-Oblique-43" d="M 4447 4306 
L 4319 3641 
Q 4019 3944 3683 4091 
Q 3347 4238 2956 4238 
Q 2422 4238 2017 3981 
Q 1613 3725 1319 3200 
Q 1131 2863 1032 2486 
Q 934 2109 934 1728 
Q 934 1091 1264 756 
Q 1594 422 2222 422 
Q 2656 422 3056 561 
Q 3456 700 3834 978 
L 3688 231 
Q 3316 72 2936 -9 
Q 2556 -91 2175 -91 
Q 1278 -91 773 396 
Q 269 884 269 1753 
Q 269 2309 461 2846 
Q 653 3384 1013 3828 
Q 1394 4300 1883 4525 
Q 2372 4750 3022 4750 
Q 3422 4750 3780 4639 
Q 4138 4528 4447 4306 
z
" transform="scale(0.015625)"/>
       <path id="DejaVuSans-Oblique-69" d="M 1172 4863 
L 1747 4863 
L 1606 4134 
L 1031 4134 
L 1172 4863 
z
M 909 3500 
L 1484 3500 
L 800 0 
L 225 0 
L 909 3500 
z
" transform="scale(0.015625)"/>
       <path id="DejaVuSans-Oblique-6a" d="M 928 3500 
L 1503 3500 
L 813 -63 
L 809 -78 
Q 694 -675 544 -897 
Q 403 -1106 132 -1218 
Q -138 -1331 -506 -1331 
L -722 -1331 
L -628 -844 
L -481 -844 
Q -144 -844 -1 -703 
Q 141 -563 238 -63 
L 928 3500 
z
M 1197 4863 
L 1772 4863 
L 1631 4134 
L 1056 4134 
L 1197 4863 
z
" transform="scale(0.015625)"/>
       <path id="DejaVuSans-29" d="M 513 4856 
L 1013 4856 
Q 1481 4119 1714 3412 
Q 1947 2706 1947 2009 
Q 1947 1309 1714 600 
Q 1481 -109 1013 -844 
L 513 -844 
Q 928 -128 1133 580 
Q 1338 1288 1338 2009 
Q 1338 2731 1133 3434 
Q 928 4138 513 4856 
z
" transform="scale(0.015625)"/>
      </defs>
      <use xlink:href="#DejaVuSans-43" transform="translate(0 0.015625)"/>
      <use xlink:href="#DejaVuSans-6f" transform="translate(69.824219 0.015625)"/>
      <use xlink:href="#DejaVuSans-68" transform="translate(131.005859 0.015625)"/>
      <use xlink:href="#DejaVuSans-65" transform="translate(194.384766 0.015625)"/>
      <use xlink:href="#DejaVuSans-72" transform="translate(255.908203 0.015625)"/>
      <use xlink:href="#DejaVuSans-65" transform="translate(297.021484 0.015625)"/>
      <use xlink:href="#DejaVuSans-6e" transform="translate(358.544922 0.015625)"/>
      <use xlink:href="#DejaVuSans-63" transform="translate(421.923828 0.015625)"/>
      <use xlink:href="#DejaVuSans-65" transform="translate(476.904297 0.015625)"/>
      <use xlink:href="#DejaVuSans-20" transform="translate(538.427734 0.015625)"/>
      <use xlink:href="#DejaVuSans-56" transform="translate(570.214844 0.015625)"/>
      <use xlink:href="#DejaVuSans-61" transform="translate(638.623047 0.015625)"/>
      <use xlink:href="#DejaVuSans-6c" transform="translate(699.902344 0.015625)"/>
      <use xlink:href="#DejaVuSans-75" transform="translate(727.685547 0.015625)"/>
      <use xlink:href="#DejaVuSans-65" transform="translate(791.064453 0.015625)"/>
      <use xlink:href="#DejaVuSans-20" transform="translate(852.587891 0.015625)"/>
      <use xlink:href="#DejaVuSans-28" transform="translate(884.375 0.015625)"/>
      <use xlink:href="#DejaVuSans-Oblique-43" transform="translate(923.388672 0.015625)"/>
      <use xlink:href="#DejaVuSans-Oblique-69" transform="translate(993.212891 -16.390625) scale(0.7)"/>
      <use xlink:href="#DejaVuSans-Oblique-6a" transform="translate(1012.661133 -16.390625) scale(0.7)"/>
      <use xlink:href="#DejaVuSans-29" transform="translate(1034.84375 0.015625)"/>
     </g>
    </g>
   </g>
   <g id="matplotlib.axis_4">
    <g id="ytick_7">
     <g id="line2d_33">
      <path d="M 85.78924 292.091595 
L 420.58924 292.091595 
" clip-path="url(#p83d427d958)" style="fill: none; stroke-dasharray: 2.96,1.28; stroke-dashoffset: 0; stroke: #3b4252; stroke-opacity: 0.3; stroke-width: 0.8"/>
     </g>
     <g id="line2d_34">
      <g>
       <use xlink:href="#m05044209e5" x="85.78924" y="292.091595" style="fill: #2e3440; stroke: #2e3440"/>
      </g>
     </g>
     <g id="text_17">
      <!-- −2.5 -->
      <g style="fill: #2e3440" transform="translate(43.29904 297.440895) scale(0.1408 -0.1408)">
       <use xlink:href="#DejaVuSans-2212"/>
       <use xlink:href="#DejaVuSans-32" transform="translate(83.789062 0)"/>
       <use xlink:href="#DejaVuSans-2e" transform="translate(147.412109 0)"/>
       <use xlink:href="#DejaVuSans-35" transform="translate(179.199219 0)"/>
      </g>
     </g>
    </g>
    <g id="ytick_8">
     <g id="line2d_35">
      <path d="M 85.78924 265.998029 
L 420.58924 265.998029 
" clip-path="url(#p83d427d958)" style="fill: none; stroke-dasharray: 2.96,1.28; stroke-dashoffset: 0; stroke: #3b4252; stroke-opacity: 0.3; stroke-width: 0.8"/>
     </g>
     <g id="line2d_36">
      <g>
       <use xlink:href="#m05044209e5" x="85.78924" y="265.998029" style="fill: #2e3440; stroke: #2e3440"/>
      </g>
     </g>
     <g id="text_18">
      <!-- 0.0 -->
      <g style="fill: #2e3440" transform="translate(55.09764 271.347329) scale(0.1408 -0.1408)">
       <use xlink:href="#DejaVuSans-30"/>
       <use xlink:href="#DejaVuSans-2e" transform="translate(63.623047 0)"/>
       <use xlink:href="#DejaVuSans-30" transform="translate(95.410156 0)"/>
      </g>
     </g>
    </g>
    <g id="ytick_9">
     <g id="line2d_37">
      <path d="M 85.78924 239.904464 
L 420.58924 239.904464 
" clip-path="url(#p83d427d958)" style="fill: none; stroke-dasharray: 2.96,1.28; stroke-dashoffset: 0; stroke: #3b4252; stroke-opacity: 0.3; stroke-width: 0.8"/>
     </g>
     <g id="line2d_38">
      <g>
       <use xlink:href="#m05044209e5" x="85.78924" y="239.904464" style="fill: #2e3440; stroke: #2e3440"/>
      </g>
     </g>
     <g id="text_19">
      <!-- 2.5 -->
      <g style="fill: #2e3440" transform="translate(55.09764 245.253764) scale(0.1408 -0.1408)">
       <use xlink:href="#DejaVuSans-32"/>
       <use xlink:href="#DejaVuSans-2e" transform="translate(63.623047 0)"/>
       <use xlink:href="#DejaVuSans-35" transform="translate(95.410156 0)"/>
      </g>
     </g>
    </g>
    <g id="text_20">
     <!-- $\Delta$ Density -->
     <g style="fill: #2e3440" transform="translate(18.8736 302.938829) rotate(-90) scale(0.1536 -0.1536)">
      <defs>
       <path id="DejaVuSans-394" d="M 2188 4044 
L 906 525 
L 3472 525 
L 2188 4044 
z
M 50 0 
L 1831 4666 
L 2547 4666 
L 4325 0 
L 50 0 
z
" transform="scale(0.015625)"/>
      </defs>
      <use xlink:href="#DejaVuSans-394" transform="translate(0 0.015625)"/>
      <use xlink:href="#DejaVuSans-20" transform="translate(68.408203 0.015625)"/>
      <use xlink:href="#DejaVuSans-44" transform="translate(100.195312 0.015625)"/>
      <use xlink:href="#DejaVuSans-65" transform="translate(177.197266 0.015625)"/>
      <use xlink:href="#DejaVuSans-6e" transform="translate(238.720703 0.015625)"/>
      <use xlink:href="#DejaVuSans-73" transform="translate(302.099609 0.015625)"/>
      <use xlink:href="#DejaVuSans-69" transform="translate(354.199219 0.015625)"/>
      <use xlink:href="#DejaVuSans-74" transform="translate(381.982422 0.015625)"/>
      <use xlink:href="#DejaVuSans-79" transform="translate(421.191406 0.015625)"/>
     </g>
     <!-- (WT - Random) -->
     <g style="fill: #2e3440" transform="translate(36.10464 323.720429) rotate(-90) scale(0.1536 -0.1536)">
      <defs>
       <path id="DejaVuSans-2d" d="M 313 2009 
L 1997 2009 
L 1997 1497 
L 313 1497 
L 313 2009 
z
" transform="scale(0.015625)"/>
      </defs>
      <use xlink:href="#DejaVuSans-28"/>
      <use xlink:href="#DejaVuSans-57" transform="translate(39.013672 0)"/>
      <use xlink:href="#DejaVuSans-54" transform="translate(137.890625 0)"/>
      <use xlink:href="#DejaVuSans-20" transform="translate(198.974609 0)"/>
      <use xlink:href="#DejaVuSans-2d" transform="translate(230.761719 0)"/>
      <use xlink:href="#DejaVuSans-20" transform="translate(266.845703 0)"/>
      <use xlink:href="#DejaVuSans-52" transform="translate(298.632812 0)"/>
      <use xlink:href="#DejaVuSans-61" transform="translate(365.865234 0)"/>
      <use xlink:href="#DejaVuSans-6e" transform="translate(427.144531 0)"/>
      <use xlink:href="#DejaVuSans-64" transform="translate(490.523438 0)"/>
      <use xlink:href="#DejaVuSans-6f" transform="translate(554 0)"/>
      <use xlink:href="#DejaVuSans-6d" transform="translate(615.181641 0)"/>
      <use xlink:href="#DejaVuSans-29" transform="translate(712.59375 0)"/>
     </g>
    </g>
   </g>
   <g id="patch_11">
    <path d="M 101.007422 265.998029 
L 107.094695 265.998029 
L 107.094695 258.349669 
L 101.007422 258.349669 
z
" clip-path="url(#p83d427d958)" style="fill: #a3be8c; opacity: 0.85; stroke: #2e3440; stroke-width: 1.2; stroke-linejoin: miter"/>
   </g>
   <g id="patch_12">
    <path d="M 107.094695 265.998029 
L 113.181967 265.998029 
L 113.181967 271.241884 
L 107.094695 271.241884 
z
" clip-path="url(#p83d427d958)" style="fill: #ebcb8b; opacity: 0.85; stroke: #2e3440; stroke-width: 1.2; stroke-linejoin: miter"/>
   </g>
   <g id="patch_13">
    <path d="M 113.181967 265.998029 
L 119.26924 265.998029 
L 119.26924 266.505928 
L 113.181967 266.505928 
z
" clip-path="url(#p83d427d958)" style="fill: #ebcb8b; opacity: 0.85; stroke: #2e3440; stroke-width: 1.2; stroke-linejoin: miter"/>
   </g>
   <g id="patch_14">
    <path d="M 119.26924 265.998029 
L 125.356513 265.998029 
L 125.356513 269.224762 
L 119.26924 269.224762 
z
" clip-path="url(#p83d427d958)" style="fill: #ebcb8b; opacity: 0.85; stroke: #2e3440; stroke-width: 1.2; stroke-linejoin: miter"/>
   </g>
   <g id="patch_15">
    <path d="M 125.356513 265.998029 
L 131.443785 265.998029 
L 131.443785 266.636208 
L 125.356513 266.636208 
z
" clip-path="url(#p83d427d958)" style="fill: #ebcb8b; opacity: 0.85; stroke: #2e3440; stroke-width: 1.2; stroke-linejoin: miter"/>
   </g>
   <g id="patch_16">
    <path d="M 131.443785 265.998029 
L 137.531058 265.998029 
L 137.531058 265.339854 
L 131.443785 265.339854 
z
" clip-path="url(#p83d427d958)" style="fill: #a3be8c; opacity: 0.85; stroke: #2e3440; stroke-width: 1.2; stroke-linejoin: miter"/>
   </g>
   <g id="patch_17">
    <path d="M 137.531058 265.998029 
L 143.618331 265.998029 
L 143.618331 268.918661 
L 137.531058 268.918661 
z
" clip-path="url(#p83d427d958)" style="fill: #ebcb8b; opacity: 0.85; stroke: #2e3440; stroke-width: 1.2; stroke-linejoin: miter"/>
   </g>
   <g id="patch_18">
    <path d="M 143.618331 265.998029 
L 149.705604 265.998029 
L 149.705604 267.475652 
L 143.618331 267.475652 
z
" clip-path="url(#p83d427d958)" style="fill: #ebcb8b; opacity: 0.85; stroke: #2e3440; stroke-width: 1.2; stroke-linejoin: miter"/>
   </g>
   <g id="patch_19">
    <path d="M 149.705604 265.998029 
L 155.792876 265.998029 
L 155.792876 269.568861 
L 149.705604 269.568861 
z
" clip-path="url(#p83d427d958)" style="fill: #ebcb8b; opacity: 0.85; stroke: #2e3440; stroke-width: 1.2; stroke-linejoin: miter"/>
   </g>
   <g id="patch_20">
    <path d="M 155.792876 265.998029 
L 161.880149 265.998029 
L 161.880149 268.592578 
L 155.792876 268.592578 
z
" clip-path="url(#p83d427d958)" style="fill: #ebcb8b; opacity: 0.85; stroke: #2e3440; stroke-width: 1.2; stroke-linejoin: miter"/>
   </g>
   <g id="patch_21">
    <path d="M 161.880149 265.998029 
L 167.967422 265.998029 
L 167.967422 267.175616 
L 161.880149 267.175616 
z
" clip-path="url(#p83d427d958)" style="fill: #ebcb8b; opacity: 0.85; stroke: #2e3440; stroke-width: 1.2; stroke-linejoin: miter"/>
   </g>
   <g id="patch_22">
    <path d="M 167.967422 265.998029 
L 174.054695 265.998029 
L 174.054695 266.02661 
L 167.967422 266.02661 
z
" clip-path="url(#p83d427d958)" style="fill: #ebcb8b; opacity: 0.85; stroke: #2e3440; stroke-width: 1.2; stroke-linejoin: miter"/>
   </g>
   <g id="patch_23">
    <path d="M 174.054695 265.998029 
L 180.141967 265.998029 
L 180.141967 268.101149 
L 174.054695 268.101149 
z
" clip-path="url(#p83d427d958)" style="fill: #ebcb8b; opacity: 0.85; stroke: #2e3440; stroke-width: 1.2; stroke-linejoin: miter"/>
   </g>
   <g id="patch_24">
    <path d="M 180.141967 265.998029 
L 186.22924 265.998029 
L 186.22924 266.446068 
L 180.141967 266.446068 
z
" clip-path="url(#p83d427d958)" style="fill: #ebcb8b; opacity: 0.85; stroke: #2e3440; stroke-width: 1.2; stroke-linejoin: miter"/>
   </g>
   <g id="patch_25">
    <path d="M 186.22924 265.998029 
L 192.316513 265.998029 
L 192.316513 266.220482 
L 186.22924 266.220482 
z
" clip-path="url(#p83d427d958)" style="fill: #ebcb8b; opacity: 0.85; stroke: #2e3440; stroke-width: 1.2; stroke-linejoin: miter"/>
   </g>
   <g id="patch_26">
    <path d="M 192.316513 265.998029 
L 198.403785 265.998029 
L 198.403785 266.676117 
L 192.316513 266.676117 
z
" clip-path="url(#p83d427d958)" style="fill: #ebcb8b; opacity: 0.85; stroke: #2e3440; stroke-width: 1.2; stroke-linejoin: miter"/>
   </g>
   <g id="patch_27">
    <path d="M 198.403785 265.998029 
L 204.491058 265.998029 
L 204.491058 266.388888 
L 198.403785 266.388888 
z
" clip-path="url(#p83d427d958)" style="fill: #ebcb8b; opacity: 0.85; stroke: #2e3440; stroke-width: 1.2; stroke-linejoin: miter"/>
   </g>
   <g id="patch_28">
    <path d="M 204.491058 265.998029 
L 210.578331 265.998029 
L 210.578331 266.269829 
L 204.491058 266.269829 
z
" clip-path="url(#p83d427d958)" style="fill: #ebcb8b; opacity: 0.85; stroke: #2e3440; stroke-width: 1.2; stroke-linejoin: miter"/>
   </g>
   <g id="patch_29">
    <path d="M 210.578331 265.998029 
L 216.665604 265.998029 
L 216.665604 266.106123 
L 210.578331 266.106123 
z
" clip-path="url(#p83d427d958)" style="fill: #ebcb8b; opacity: 0.85; stroke: #2e3440; stroke-width: 1.2; stroke-linejoin: miter"/>
   </g>
   <g id="patch_30">
    <path d="M 216.665604 265.998029 
L 222.752876 265.998029 
L 222.752876 265.951342 
L 216.665604 265.951342 
z
" clip-path="url(#p83d427d958)" style="fill: #a3be8c; opacity: 0.85; stroke: #2e3440; stroke-width: 1.2; stroke-linejoin: miter"/>
   </g>
   <g id="patch_31">
    <path d="M 222.752876 265.998029 
L 228.840149 265.998029 
L 228.840149 265.857421 
L 222.752876 265.857421 
z
" clip-path="url(#p83d427d958)" style="fill: #a3be8c; opacity: 0.85; stroke: #2e3440; stroke-width: 1.2; stroke-linejoin: miter"/>
   </g>
   <g id="patch_32">
    <path d="M 228.840149 265.998029 
L 234.927422 265.998029 
L 234.927422 266.500115 
L 228.840149 266.500115 
z
" clip-path="url(#p83d427d958)" style="fill: #ebcb8b; opacity: 0.85; stroke: #2e3440; stroke-width: 1.2; stroke-linejoin: miter"/>
   </g>
   <g id="patch_33">
    <path d="M 234.927422 265.998029 
L 241.014695 265.998029 
L 241.014695 266.010872 
L 234.927422 266.010872 
z
" clip-path="url(#p83d427d958)" style="fill: #ebcb8b; opacity: 0.85; stroke: #2e3440; stroke-width: 1.2; stroke-linejoin: miter"/>
   </g>
   <g id="patch_34">
    <path d="M 241.014695 265.998029 
L 247.101967 265.998029 
L 247.101967 266.226748 
L 241.014695 266.226748 
z
" clip-path="url(#p83d427d958)" style="fill: #ebcb8b; opacity: 0.85; stroke: #2e3440; stroke-width: 1.2; stroke-linejoin: miter"/>
   </g>
   <g id="patch_35">
    <path d="M 247.101967 265.998029 
L 253.18924 265.998029 
L 253.18924 265.990798 
L 247.101967 265.990798 
z
" clip-path="url(#p83d427d958)" style="fill: #a3be8c; opacity: 0.85; stroke: #2e3440; stroke-width: 1.2; stroke-linejoin: miter"/>
   </g>
   <g id="patch_36">
    <path d="M 253.18924 265.998029 
L 259.276513 265.998029 
L 259.276513 268.259811 
L 253.18924 268.259811 
z
" clip-path="url(#p83d427d958)" style="fill: #ebcb8b; opacity: 0.85; stroke: #2e3440; stroke-width: 1.2; stroke-linejoin: miter"/>
   </g>
   <g id="patch_37">
    <path d="M 259.276513 265.998029 
L 265.363785 265.998029 
L 265.363785 265.969121 
L 259.276513 265.969121 
z
" clip-path="url(#p83d427d958)" style="fill: #a3be8c; opacity: 0.85; stroke: #2e3440; stroke-width: 1.2; stroke-linejoin: miter"/>
   </g>
   <g id="patch_38">
    <path d="M 265.363785 265.998029 
L 271.451058 265.998029 
L 271.451058 266.20223 
L 265.363785 266.20223 
z
" clip-path="url(#p83d427d958)" style="fill: #ebcb8b; opacity: 0.85; stroke: #2e3440; stroke-width: 1.2; stroke-linejoin: miter"/>
   </g>
   <g id="patch_39">
    <path d="M 271.451058 265.998029 
L 277.538331 265.998029 
L 277.538331 266.509514 
L 271.451058 266.509514 
z
" clip-path="url(#p83d427d958)" style="fill: #ebcb8b; opacity: 0.85; stroke: #2e3440; stroke-width: 1.2; stroke-linejoin: miter"/>
   </g>
   <g id="patch_40">
    <path d="M 277.538331 265.998029 
L 283.625604 265.998029 
L 283.625604 265.664259 
L 277.538331 265.664259 
z
" clip-path="url(#p83d427d958)" style="fill: #a3be8c; opacity: 0.85; stroke: #2e3440; stroke-width: 1.2; stroke-linejoin: miter"/>
   </g>
   <g id="patch_41">
    <path d="M 283.625604 265.998029 
L 289.712876 265.998029 
L 289.712876 265.937243 
L 283.625604 265.937243 
z
" clip-path="url(#p83d427d958)" style="fill: #a3be8c; opacity: 0.85; stroke: #2e3440; stroke-width: 1.2; stroke-linejoin: miter"/>
   </g>
   <g id="patch_42">
    <path d="M 289.712876 265.998029 
L 295.800149 265.998029 
L 295.800149 266.025991 
L 289.712876 266.025991 
z
" clip-path="url(#p83d427d958)" style="fill: #ebcb8b; opacity: 0.85; stroke: #2e3440; stroke-width: 1.2; stroke-linejoin: miter"/>
   </g>
   <g id="patch_43">
    <path d="M 295.800149 265.998029 
L 301.887422 265.998029 
L 301.887422 265.97954 
L 295.800149 265.97954 
z
" clip-path="url(#p83d427d958)" style="fill: #a3be8c; opacity: 0.85; stroke: #2e3440; stroke-width: 1.2; stroke-linejoin: miter"/>
   </g>
   <g id="patch_44">
    <path d="M 301.887422 265.998029 
L 307.974695 265.998029 
L 307.974695 266.244527 
L 301.887422 266.244527 
z
" clip-path="url(#p83d427d958)" style="fill: #ebcb8b; opacity: 0.85; stroke: #2e3440; stroke-width: 1.2; stroke-linejoin: miter"/>
   </g>
   <g id="patch_45">
    <path d="M 307.974695 265.998029 
L 314.061967 265.998029 
L 314.061967 266.393588 
L 307.974695 266.393588 
z
" clip-path="url(#p83d427d958)" style="fill: #ebcb8b; opacity: 0.85; stroke: #2e3440; stroke-width: 1.2; stroke-linejoin: miter"/>
   </g>
   <g id="patch_46">
    <path d="M 314.061967 265.998029 
L 320.14924 265.998029 
L 320.14924 266.242414 
L 314.061967 266.242414 
z
" clip-path="url(#p83d427d958)" style="fill: #ebcb8b; opacity: 0.85; stroke: #2e3440; stroke-width: 1.2; stroke-linejoin: miter"/>
   </g>
   <g id="patch_47">
    <path d="M 320.14924 265.998029 
L 326.236513 265.998029 
L 326.236513 266.435885 
L 320.14924 266.435885 
z
" clip-path="url(#p83d427d958)" style="fill: #ebcb8b; opacity: 0.85; stroke: #2e3440; stroke-width: 1.2; stroke-linejoin: miter"/>
   </g>
   <g id="patch_48">
    <path d="M 326.236513 265.998029 
L 332.323785 265.998029 
L 332.323785 268.13483 
L 326.236513 268.13483 
z
" clip-path="url(#p83d427d958)" style="fill: #ebcb8b; opacity: 0.85; stroke: #2e3440; stroke-width: 1.2; stroke-linejoin: miter"/>
   </g>
   <g id="patch_49">
    <path d="M 332.323785 265.998029 
L 338.411058 265.998029 
L 338.411058 266.385518 
L 332.323785 266.385518 
z
" clip-path="url(#p83d427d958)" style="fill: #ebcb8b; opacity: 0.85; stroke: #2e3440; stroke-width: 1.2; stroke-linejoin: miter"/>
   </g>
   <g id="patch_50">
    <path d="M 338.411058 265.998029 
L 344.498331 265.998029 
L 344.498331 267.146635 
L 338.411058 267.146635 
z
" clip-path="url(#p83d427d958)" style="fill: #ebcb8b; opacity: 0.85; stroke: #2e3440; stroke-width: 1.2; stroke-linejoin: miter"/>
   </g>
   <g id="patch_51">
    <path d="M 344.498331 265.998029 
L 350.585604 265.998029 
L 350.585604 269.177382 
L 344.498331 269.177382 
z
" clip-path="url(#p83d427d958)" style="fill: #ebcb8b; opacity: 0.85; stroke: #2e3440; stroke-width: 1.2; stroke-linejoin: miter"/>
   </g>
   <g id="patch_52">
    <path d="M 350.585604 265.998029 
L 356.672876 265.998029 
L 356.672876 269.207767 
L 350.585604 269.207767 
z
" clip-path="url(#p83d427d958)" style="fill: #ebcb8b; opacity: 0.85; stroke: #2e3440; stroke-width: 1.2; stroke-linejoin: miter"/>
   </g>
   <g id="patch_53">
    <path d="M 356.672876 265.998029 
L 362.760149 265.998029 
L 362.760149 266.136145 
L 356.672876 266.136145 
z
" clip-path="url(#p83d427d958)" style="fill: #ebcb8b; opacity: 0.85; stroke: #2e3440; stroke-width: 1.2; stroke-linejoin: miter"/>
   </g>
   <g id="patch_54">
    <path d="M 362.760149 265.998029 
L 368.847422 265.998029 
L 368.847422 268.784483 
L 362.760149 268.784483 
z
" clip-path="url(#p83d427d958)" style="fill: #ebcb8b; opacity: 0.85; stroke: #2e3440; stroke-width: 1.2; stroke-linejoin: miter"/>
   </g>
   <g id="patch_55">
    <path d="M 368.847422 265.998029 
L 374.934695 265.998029 
L 374.934695 264.778385 
L 368.847422 264.778385 
z
" clip-path="url(#p83d427d958)" style="fill: #a3be8c; opacity: 0.85; stroke: #2e3440; stroke-width: 1.2; stroke-linejoin: miter"/>
   </g>
   <g id="patch_56">
    <path d="M 374.934695 265.998029 
L 381.021967 265.998029 
L 381.021967 263.026688 
L 374.934695 263.026688 
z
" clip-path="url(#p83d427d958)" style="fill: #a3be8c; opacity: 0.85; stroke: #2e3440; stroke-width: 1.2; stroke-linejoin: miter"/>
   </g>
   <g id="patch_57">
    <path d="M 381.021967 265.998029 
L 387.10924 265.998029 
L 387.10924 268.953509 
L 381.021967 268.953509 
z
" clip-path="url(#p83d427d958)" style="fill: #ebcb8b; opacity: 0.85; stroke: #2e3440; stroke-width: 1.2; stroke-linejoin: miter"/>
   </g>
   <g id="patch_58">
    <path d="M 387.10924 265.998029 
L 393.196513 265.998029 
L 393.196513 266.692587 
L 387.10924 266.692587 
z
" clip-path="url(#p83d427d958)" style="fill: #ebcb8b; opacity: 0.85; stroke: #2e3440; stroke-width: 1.2; stroke-linejoin: miter"/>
   </g>
   <g id="patch_59">
    <path d="M 393.196513 265.998029 
L 399.283785 265.998029 
L 399.283785 271.007208 
L 393.196513 271.007208 
z
" clip-path="url(#p83d427d958)" style="fill: #ebcb8b; opacity: 0.85; stroke: #2e3440; stroke-width: 1.2; stroke-linejoin: miter"/>
   </g>
   <g id="patch_60">
    <path d="M 399.283785 265.998029 
L 405.371058 265.998029 
L 405.371058 226.803968 
L 399.283785 226.803968 
z
" clip-path="url(#p83d427d958)" style="fill: #a3be8c; opacity: 0.85; stroke: #2e3440; stroke-width: 1.2; stroke-linejoin: miter"/>
   </g>
   <g id="patch_61">
    <path d="M 85.78924 311.0712 
L 85.78924 220.924859 
" style="fill: none; stroke: #3b4252; stroke-width: 1.5; stroke-linejoin: miter; stroke-linecap: square"/>
   </g>
   <g id="patch_62">
    <path d="M 420.58924 311.0712 
L 420.58924 220.924859 
" style="fill: none; stroke: #3b4252; stroke-width: 1.5; stroke-linejoin: miter; stroke-linecap: square"/>
   </g>
   <g id="patch_63">
    <path d="M 85.78924 311.0712 
L 420.58924 311.0712 
" style="fill: none; stroke: #3b4252; stroke-width: 1.5; stroke-linejoin: miter; stroke-linecap: square"/>
   </g>
   <g id="patch_64">
    <path d="M 85.78924 220.924859 
L 420.58924 220.924859 
" style="fill: none; stroke: #3b4252; stroke-width: 1.5; stroke-linejoin: miter; stroke-linecap: square"/>
   </g>
   <g id="line2d_39">
    <path d="M 85.78924 265.998029 
L 420.58924 265.998029 
" clip-path="url(#p83d427d958)" style="fill: none; stroke: #2e3440; stroke-width: 1.5; stroke-linecap: square"/>
   </g>
  </g>
 </g>
 <defs>
  <clipPath id="pbc113fa0fb">
   <rect x="85.78924" y="33.8712" width="334.8" height="180.292683"/>
  </clipPath>
  <clipPath id="p83d427d958">
   <rect x="85.78924" y="220.924859" width="334.8" height="90.146341"/>
  </clipPath>
 </defs>
</svg>
